<!-- Generated by IcoMoon.io -->
<svg version="1.1" xmlns="http://www.w3.org/2000/svg" width="32" height="32" viewBox="0 0 32 32">
<title>qq</title>
<path d="M31.616 21.14l-0.083-0.579-0.105-0.566-0.085-0.291-0.081-0.309-0.109-0.295-0.112-0.327-0.127-0.31-0.137-0.318-0.247-0.518-0.217-0.457-0.219-0.407-0.189-0.381-0.22-0.347-0.16-0.318-0.34-0.475-0.427-0.632-0.099-0.157-0.033-0.067v-0.053l0.070-0.213 0.099-0.19 0.087-0.375 0.047-0.195v-0.2l0.024-0.161v-0.162l-0.024-0.186-0.029-0.153-0.063-0.308-0.082-0.299-0.073-0.275-0.115-0.267-0.135-0.223-0.101-0.21-0.115-0.199-0.181-0.295-0.067-0.105-0.019-0.091-0.083-0.57-0.053-0.375-0.062-0.466-0.096-0.48-0.149-0.551-0.083-0.309-0.068-0.261-0.093-0.305-0.106-0.323-0.104-0.299-0.134-0.322-0.273-0.623-0.16-0.295-0.197-0.338-0.185-0.29-0.181-0.327-0.259-0.305-0.219-0.294-0.266-0.305-0.273-0.276-0.275-0.267-0.324-0.275-0.171-0.1-0.161-0.138-0.349-0.243-0.405-0.262-0.413-0.237-0.427-0.213-0.467-0.195-0.439-0.185-0.455-0.161-0.499-0.134-0.455-0.117-0.487-0.104-0.458-0.109-0.496-0.053-0.485-0.058-0.484-0.061h-1.449l-0.491 0.027-0.462 0.062-0.459 0.063-0.466 0.075-0.462 0.086-0.439 0.104-0.438 0.138-0.406 0.137-0.406 0.133-0.409 0.195-0.385 0.157-0.341 0.19-0.355 0.213-0.328 0.223-0.324 0.253-0.267 0.233-0.417 0.385-0.349 0.357-0.331 0.346-0.305 0.353-0.286 0.361-0.25 0.352-0.243 0.351-0.113 0.157-0.105 0.19-0.228 0.333-0.181 0.333-0.161 0.313-0.14 0.333-0.137 0.304-0.115 0.285-0.104 0.305-0.105 0.281-0.142 0.509-0.103 0.489-0.057 0.409-0.058 0.352v0.685l-0.098 0.105-0.092 0.142-0.071 0.128-0.061 0.138-0.077 0.299-0.084 0.275-0.029 0.248-0.020 0.18v0.195l-0.195 0.277-0.138 0.275-0.105 0.266-0.077 0.238-0.060 0.228-0.058 0.214v0.546l0.033 0.133 0.049 0.243 0.061 0.185-0.11 0.081-0.305 0.223-0.404 0.361-0.247 0.213-0.241 0.21-0.167 0.167-0.137 0.147-0.295 0.309-0.28 0.309-0.218 0.266-0.263 0.385-0.251 0.346-0.246 0.385-0.209 0.357-0.173 0.379-0.185 0.351-0.133 0.347-0.141 0.363-0.106 0.351-0.102 0.359-0.093 0.315-0.051 0.337-0.056 0.314-0.047 0.305-0.029 0.592v0.8l0.030 0.242 0.077 0.413 0.027 0.181 0.051 0.185 0.063 0.177 0.059 0.124 0.093 0.229 0.071 0.046 0.042 0.096 0.055 0.023h0.059l0.243-0.021 0.247-0.063 0.209-0.080 0.218-0.138 0.198-0.128 0.182-0.168 0.195-0.173 0.166-0.181 0.156-0.205 0.143-0.185 0.134-0.152 0.084-0.177 0.163-0.291 0.051-0.118 0.029-0.071 0.015-0.081 0.038-0.067 0.085-0.041h0.033l0.015 0.027h0.027l0.028 0.016 0.091 0.393 0.099 0.321 0.133 0.332 0.133 0.299 0.113 0.299 0.173 0.261 0.127 0.275 0.143 0.252 0.165 0.217 0.125 0.211 0.331 0.388 0.291 0.348 0.279 0.271 0.276 0.241 0.238 0.188 0.356 0.309 0.143 0.069 0.047 0.066v0.035l-0.035 0.027h-0.013l-0.071 0.023-0.266 0.019-0.249 0.033-0.209 0.030-0.219 0.048-0.19 0.055-0.189 0.057-0.166 0.087-0.132 0.077-0.167 0.053-0.103 0.086-0.113 0.067-0.121 0.097-0.152 0.185-0.057 0.085-0.070 0.075-0.097 0.193-0.053 0.163-0.062 0.162-0.014 0.142v0.267l-0.027 0.132v0.135l-0.034 0.133v0.117l0.034 0.128 0.027 0.115 0.076 0.224 0.053 0.103 0.067 0.105 0.075 0.103 0.081 0.092 0.109 0.103 0.081 0.087 0.243 0.175 0.243 0.149 0.279 0.133 0.301 0.119 0.317 0.127 0.352 0.081 0.353 0.113 0.381 0.076 0.77 0.115 0.404 0.056 0.795 0.081 0.821 0.014h1.452l0.356-0.014 0.305-0.034 0.295-0.025 0.275-0.024 0.443-0.084 0.318-0.087 0.305-0.076 0.559-0.226 0.253-0.097 0.242-0.117 0.399-0.219 0.362-0.177 0.265-0.167 0.195-0.176 0.305 0.034 0.237 0.023 0.466 0.034h0.403l0.143 0.029 0.145 0.055 0.227 0.082 0.255 0.085 0.485 0.148 0.496 0.177 0.483 0.136 0.487 0.096 0.497 0.124 0.514 0.070 0.488 0.055 0.491 0.065 0.457 0.041 0.489 0.029h1.358l0.439-0.053 0.428-0.019 0.411-0.067 0.379-0.082 0.378-0.081 0.367-0.086 0.153-0.042 0.167-0.053 0.318-0.123 0.281-0.127 0.265-0.133 0.247-0.139 0.216-0.16 0.089-0.086 0.105-0.119 0.129-0.156 0.145-0.197 0.051-0.099 0.025-0.083 0.061-0.101 0.023-0.117v-0.107l0.030-0.109-0.030-0.163-0.023-0.137-0.061-0.161-0.046-0.133-0.095-0.163-0.107-0.146-0.103-0.129-0.143-0.108-0.291-0.248-0.327-0.237-0.329-0.192-0.347-0.193-0.792-0.381-0.189-0.113-0.051-0.053-0.031-0.033 0.38-0.376 0.164-0.185 0.137-0.172 0.268-0.377 0.25-0.383 0.214-0.341 0.203-0.329 0.268-0.655 0.209-0.545 0.14-0.385 0.077-0.128 0.050-0.105 0.085-0.061h0.033l0.025 0.019 0.203 0.394 0.183 0.381 0.127 0.213 0.132 0.185 0.131 0.229 0.169 0.223 0.143 0.157 0.086 0.085 0.083 0.077 0.078 0.057 0.075 0.052 0.161 0.080 0.086 0.029h0.131l0.087-0.029 0.105-0.052 0.12-0.049 0.096-0.086 0.093-0.099 0.103-0.124 0.081-0.096 0.093-0.153 0.070-0.125 0.081-0.175 0.043-0.148 0.119-0.361 0.077-0.399 0.055-0.442 0.038-0.257v-0.721z"></path>
</svg>
