<!-- Generated by IcoMoon.io -->
<svg version="1.1" xmlns="http://www.w3.org/2000/svg" width="32" height="32" viewBox="0 0 32 32">
<title>search_icon</title>
<path d="M13.044 26.042c-7.176-0.009-12.991-5.824-13-12.999v-0.001c0-7.168 5.832-13 13-13s13 5.832 13 13c0 7.166-5.832 13-13 13zM13.044 2.042c-6.066 0-11 4.934-11 11s4.934 11 11 11c6.064 0 11-4.934 11-11s-4.934-11-11-11z"></path>
<path d="M30.956 31.958c-0.271 0-0.516-0.108-0.696-0.282l0 0-9.344-9.042c-0.187-0.182-0.302-0.436-0.302-0.716 0-0.552 0.448-1 1-1 0.269 0 0.513 0.106 0.693 0.279l-0-0 9.344 9.042c0.189 0.182 0.306 0.437 0.306 0.72 0 0.552-0.448 1-1 1 0 0-0 0-0 0v0z"></path>
</svg>
