<!-- Generated by IcoMoon.io -->
<svg version="1.1" xmlns="http://www.w3.org/2000/svg" width="32" height="32" viewBox="0 0 32 32">
<title>list</title>
<path d="M26.524 16.961h-14.482c-0.531 0-0.96-0.43-0.96-0.96s0.43-0.96 0.96-0.96h14.482c0.531 0 0.961 0.43 0.961 0.96s-0.43 0.96-0.961 0.96v0 0zM26.524 9.277h-14.482c-0.531 0-0.96-0.43-0.96-0.96s0.43-0.96 0.96-0.96h14.482c0.531 0 0.961 0.43 0.961 0.96s-0.43 0.96-0.961 0.96v0 0zM6.437 25.604c-1.061 0-1.921-0.86-1.921-1.921s0.86-1.921 1.921-1.921c1.061 0 1.921 0.86 1.921 1.921s-0.86 1.921-1.921 1.921v0 0zM6.437 17.921c-1.061 0-1.921-0.86-1.921-1.921s0.86-1.921 1.921-1.921c1.061 0 1.921 0.86 1.921 1.921s-0.86 1.921-1.921 1.921v0 0zM6.437 10.238c-1.061 0-1.921-0.86-1.921-1.921s0.86-1.921 1.921-1.921c1.061 0 1.921 0.86 1.921 1.921s-0.86 1.921-1.921 1.921v0 0zM12.042 22.723h14.482c0.531 0 0.961 0.43 0.961 0.96s-0.43 0.96-0.961 0.96h-14.482c-0.531 0-0.96-0.43-0.96-0.96s0.43-0.96 0.96-0.96v0 0z"></path>
</svg>
