<!-- Generated by IcoMoon.io -->
<svg version="1.1" xmlns="http://www.w3.org/2000/svg" width="32" height="32" viewBox="0 0 32 32">
<title>typeface</title>
<path d="M5.6 5.6v5.92h1.44c0-0.64 0.16-1.12 0.16-1.6 0.16-0.64 0.8-1.12 1.44-1.12h3.84c0.64 0 1.12 0.48 1.12 1.12v12.64c0 0.96-0.16 1.6-0.48 1.92s-1.28 0.48-2.56 0.48v1.44h10.56v-1.44c-0.8 0-1.6-0.16-2.080-0.32s-0.8-0.48-0.8-0.8c-0.16-0.32-0.16-0.8-0.16-1.44v-12.48c0-0.64 0.48-1.12 1.12-1.12h3.84c0.64 0 1.28 0.32 1.44 0.96 0.16 0.48 0.32 0.96 0.32 1.6h1.44v-5.76h-20.64z"></path>
</svg>
