<svg aria-hidden="true" style="position: absolute; width: 0; height: 0; overflow: hidden;" version="1.1" xmlns="http://www.w3.org/2000/svg" xmlns:xlink="http://www.w3.org/1999/xlink">
<defs>
<symbol id="icon-qq" viewBox="0 0 32 32">
<title>qq</title>
<path d="M31.616 21.14l-0.083-0.579-0.105-0.566-0.085-0.291-0.081-0.309-0.109-0.295-0.112-0.327-0.127-0.31-0.137-0.318-0.247-0.518-0.217-0.457-0.219-0.407-0.189-0.381-0.22-0.347-0.16-0.318-0.34-0.475-0.427-0.632-0.099-0.157-0.033-0.067v-0.053l0.070-0.213 0.099-0.19 0.087-0.375 0.047-0.195v-0.2l0.024-0.161v-0.162l-0.024-0.186-0.029-0.153-0.063-0.308-0.082-0.299-0.073-0.275-0.115-0.267-0.135-0.223-0.101-0.21-0.115-0.199-0.181-0.295-0.067-0.105-0.019-0.091-0.083-0.57-0.053-0.375-0.062-0.466-0.096-0.48-0.149-0.551-0.083-0.309-0.068-0.261-0.093-0.305-0.106-0.323-0.104-0.299-0.134-0.322-0.273-0.623-0.16-0.295-0.197-0.338-0.185-0.29-0.181-0.327-0.259-0.305-0.219-0.294-0.266-0.305-0.273-0.276-0.275-0.267-0.324-0.275-0.171-0.1-0.161-0.138-0.349-0.243-0.405-0.262-0.413-0.237-0.427-0.213-0.467-0.195-0.439-0.185-0.455-0.161-0.499-0.134-0.455-0.117-0.487-0.104-0.458-0.109-0.496-0.053-0.485-0.058-0.484-0.061h-1.449l-0.491 0.027-0.462 0.062-0.459 0.063-0.466 0.075-0.462 0.086-0.439 0.104-0.438 0.138-0.406 0.137-0.406 0.133-0.409 0.195-0.385 0.157-0.341 0.19-0.355 0.213-0.328 0.223-0.324 0.253-0.267 0.233-0.417 0.385-0.349 0.357-0.331 0.346-0.305 0.353-0.286 0.361-0.25 0.352-0.243 0.351-0.113 0.157-0.105 0.19-0.228 0.333-0.181 0.333-0.161 0.313-0.14 0.333-0.137 0.304-0.115 0.285-0.104 0.305-0.105 0.281-0.142 0.509-0.103 0.489-0.057 0.409-0.058 0.352v0.685l-0.098 0.105-0.092 0.142-0.071 0.128-0.061 0.138-0.077 0.299-0.084 0.275-0.029 0.248-0.020 0.18v0.195l-0.195 0.277-0.138 0.275-0.105 0.266-0.077 0.238-0.060 0.228-0.058 0.214v0.546l0.033 0.133 0.049 0.243 0.061 0.185-0.11 0.081-0.305 0.223-0.404 0.361-0.247 0.213-0.241 0.21-0.167 0.167-0.137 0.147-0.295 0.309-0.28 0.309-0.218 0.266-0.263 0.385-0.251 0.346-0.246 0.385-0.209 0.357-0.173 0.379-0.185 0.351-0.133 0.347-0.141 0.363-0.106 0.351-0.102 0.359-0.093 0.315-0.051 0.337-0.056 0.314-0.047 0.305-0.029 0.592v0.8l0.030 0.242 0.077 0.413 0.027 0.181 0.051 0.185 0.063 0.177 0.059 0.124 0.093 0.229 0.071 0.046 0.042 0.096 0.055 0.023h0.059l0.243-0.021 0.247-0.063 0.209-0.080 0.218-0.138 0.198-0.128 0.182-0.168 0.195-0.173 0.166-0.181 0.156-0.205 0.143-0.185 0.134-0.152 0.084-0.177 0.163-0.291 0.051-0.118 0.029-0.071 0.015-0.081 0.038-0.067 0.085-0.041h0.033l0.015 0.027h0.027l0.028 0.016 0.091 0.393 0.099 0.321 0.133 0.332 0.133 0.299 0.113 0.299 0.173 0.261 0.127 0.275 0.143 0.252 0.165 0.217 0.125 0.211 0.331 0.388 0.291 0.348 0.279 0.271 0.276 0.241 0.238 0.188 0.356 0.309 0.143 0.069 0.047 0.066v0.035l-0.035 0.027h-0.013l-0.071 0.023-0.266 0.019-0.249 0.033-0.209 0.030-0.219 0.048-0.19 0.055-0.189 0.057-0.166 0.087-0.132 0.077-0.167 0.053-0.103 0.086-0.113 0.067-0.121 0.097-0.152 0.185-0.057 0.085-0.070 0.075-0.097 0.193-0.053 0.163-0.062 0.162-0.014 0.142v0.267l-0.027 0.132v0.135l-0.034 0.133v0.117l0.034 0.128 0.027 0.115 0.076 0.224 0.053 0.103 0.067 0.105 0.075 0.103 0.081 0.092 0.109 0.103 0.081 0.087 0.243 0.175 0.243 0.149 0.279 0.133 0.301 0.119 0.317 0.127 0.352 0.081 0.353 0.113 0.381 0.076 0.77 0.115 0.404 0.056 0.795 0.081 0.821 0.014h1.452l0.356-0.014 0.305-0.034 0.295-0.025 0.275-0.024 0.443-0.084 0.318-0.087 0.305-0.076 0.559-0.226 0.253-0.097 0.242-0.117 0.399-0.219 0.362-0.177 0.265-0.167 0.195-0.176 0.305 0.034 0.237 0.023 0.466 0.034h0.403l0.143 0.029 0.145 0.055 0.227 0.082 0.255 0.085 0.485 0.148 0.496 0.177 0.483 0.136 0.487 0.096 0.497 0.124 0.514 0.070 0.488 0.055 0.491 0.065 0.457 0.041 0.489 0.029h1.358l0.439-0.053 0.428-0.019 0.411-0.067 0.379-0.082 0.378-0.081 0.367-0.086 0.153-0.042 0.167-0.053 0.318-0.123 0.281-0.127 0.265-0.133 0.247-0.139 0.216-0.16 0.089-0.086 0.105-0.119 0.129-0.156 0.145-0.197 0.051-0.099 0.025-0.083 0.061-0.101 0.023-0.117v-0.107l0.030-0.109-0.030-0.163-0.023-0.137-0.061-0.161-0.046-0.133-0.095-0.163-0.107-0.146-0.103-0.129-0.143-0.108-0.291-0.248-0.327-0.237-0.329-0.192-0.347-0.193-0.792-0.381-0.189-0.113-0.051-0.053-0.031-0.033 0.38-0.376 0.164-0.185 0.137-0.172 0.268-0.377 0.25-0.383 0.214-0.341 0.203-0.329 0.268-0.655 0.209-0.545 0.14-0.385 0.077-0.128 0.050-0.105 0.085-0.061h0.033l0.025 0.019 0.203 0.394 0.183 0.381 0.127 0.213 0.132 0.185 0.131 0.229 0.169 0.223 0.143 0.157 0.086 0.085 0.083 0.077 0.078 0.057 0.075 0.052 0.161 0.080 0.086 0.029h0.131l0.087-0.029 0.105-0.052 0.12-0.049 0.096-0.086 0.093-0.099 0.103-0.124 0.081-0.096 0.093-0.153 0.070-0.125 0.081-0.175 0.043-0.148 0.119-0.361 0.077-0.399 0.055-0.442 0.038-0.257v-0.721z"></path>
</symbol>
<symbol id="icon-tree" viewBox="0 0 32 32">
<title>tree</title>
<path d="M30.5 24h-0.5v-6.5c0-1.93-1.57-3.5-3.5-3.5h-8.5v-4h0.5c0.825 0 1.5-0.675 1.5-1.5v-5c0-0.825-0.675-1.5-1.5-1.5h-5c-0.825 0-1.5 0.675-1.5 1.5v5c0 0.825 0.675 1.5 1.5 1.5h0.5v4h-8.5c-1.93 0-3.5 1.57-3.5 3.5v6.5h-0.5c-0.825 0-1.5 0.675-1.5 1.5v5c0 0.825 0.675 1.5 1.5 1.5h5c0.825 0 1.5-0.675 1.5-1.5v-5c0-0.825-0.675-1.5-1.5-1.5h-0.5v-6h8v6h-0.5c-0.825 0-1.5 0.675-1.5 1.5v5c0 0.825 0.675 1.5 1.5 1.5h5c0.825 0 1.5-0.675 1.5-1.5v-5c0-0.825-0.675-1.5-1.5-1.5h-0.5v-6h8v6h-0.5c-0.825 0-1.5 0.675-1.5 1.5v5c0 0.825 0.675 1.5 1.5 1.5h5c0.825 0 1.5-0.675 1.5-1.5v-5c0-0.825-0.675-1.5-1.5-1.5zM6 30h-4v-4h4v4zM18 30h-4v-4h4v4zM14 8v-4h4v4h-4zM30 30h-4v-4h4v4z"></path>
</symbol>
<symbol id="icon-equalizer2" viewBox="0 0 32 32">
<title>equalizer2</title>
<path d="M28 14h0.5c0.825 0 1.5-0.675 1.5-1.5v-5c0-0.825-0.675-1.5-1.5-1.5h-0.5v-6h-4v6h-0.5c-0.825 0-1.5 0.675-1.5 1.5v5c0 0.825 0.675 1.5 1.5 1.5h0.5v18h4v-18zM24 8h4v4h-4v-4zM18.5 26c0.825 0 1.5-0.675 1.5-1.5v-5c0-0.825-0.675-1.5-1.5-1.5h-0.5v-18h-4v18h-0.5c-0.825 0-1.5 0.675-1.5 1.5v5c0 0.825 0.675 1.5 1.5 1.5h0.5v6h4v-6h0.5zM14 20h4v4h-4v-4zM8.5 14c0.825 0 1.5-0.675 1.5-1.5v-5c0-0.825-0.675-1.5-1.5-1.5h-0.5v-6h-4v6h-0.5c-0.825 0-1.5 0.675-1.5 1.5v5c0 0.825 0.675 1.5 1.5 1.5h0.5v18h4v-18h0.5zM4 8h4v4h-4v-4z"></path>
</symbol>
<symbol id="icon-play3" viewBox="0 0 32 32">
<title>play3</title>
<path d="M6 4l20 12-20 12z"></path>
</symbol>
<symbol id="icon-search_icon" viewBox="0 0 32 32">
<title>search_icon</title>
<path d="M13.044 26.042c-7.176-0.009-12.991-5.824-13-12.999v-0.001c0-7.168 5.832-13 13-13s13 5.832 13 13c0 7.166-5.832 13-13 13zM13.044 2.042c-6.066 0-11 4.934-11 11s4.934 11 11 11c6.064 0 11-4.934 11-11s-4.934-11-11-11z"></path>
<path d="M30.956 31.958c-0.271 0-0.516-0.108-0.696-0.282l0 0-9.344-9.042c-0.187-0.182-0.302-0.436-0.302-0.716 0-0.552 0.448-1 1-1 0.269 0 0.513 0.106 0.693 0.279l-0-0 9.344 9.042c0.189 0.182 0.306 0.437 0.306 0.72 0 0.552-0.448 1-1 1 0 0-0 0-0 0v0z"></path>
</symbol>
<symbol id="icon-home" viewBox="0 0 24 24">
<title>home</title>
<path d="M9.984 20.016h-4.969v-8.016h-3l9.984-9 9.984 9h-3v8.016h-4.969v-6h-4.031v6z"></path>
</symbol>
<symbol id="icon-markunread" viewBox="0 0 24 24">
<title>markunread</title>
<path d="M20.016 8.016v-2.016l-8.016 5.016-8.016-5.016v2.016l8.016 4.969zM20.016 3.984c1.078 0 1.969 0.938 1.969 2.016v12c0 1.078-0.891 2.016-1.969 2.016h-16.031c-1.078 0-1.969-0.938-1.969-2.016v-12c0-1.078 0.891-2.016 1.969-2.016h16.031z"></path>
</symbol>
<symbol id="icon-mode_edit" viewBox="0 0 24 24">
<title>mode_edit</title>
<path d="M20.719 7.031l-1.828 1.828-3.75-3.75 1.828-1.828c0.375-0.375 1.031-0.375 1.406 0l2.344 2.344c0.375 0.375 0.375 1.031 0 1.406zM3 17.25l11.063-11.063 3.75 3.75-11.063 11.063h-3.75v-3.75z"></path>
</symbol>
<symbol id="icon-arrow_drop_down" viewBox="0 0 24 24">
<title>arrow_drop_down</title>
<path d="M6.984 9.984h10.031l-5.016 5.016z"></path>
</symbol>
<symbol id="icon-arrow_drop_up" viewBox="0 0 24 24">
<title>arrow_drop_up</title>
<path d="M6.984 14.016l5.016-5.016 5.016 5.016h-10.031z"></path>
</symbol>
<symbol id="icon-fiber_manual_record" viewBox="0 0 24 24">
<title>fiber_manual_record</title>
<path d="M3.984 12c0-4.406 3.609-8.016 8.016-8.016s8.016 3.609 8.016 8.016-3.609 8.016-8.016 8.016-8.016-3.609-8.016-8.016z"></path>
</symbol>
<symbol id="icon-more_horiz" viewBox="0 0 24 24">
<title>more_horiz</title>
<path d="M12 9.984c1.078 0 2.016 0.938 2.016 2.016s-0.938 2.016-2.016 2.016-2.016-0.938-2.016-2.016 0.938-2.016 2.016-2.016zM18 9.984c1.078 0 2.016 0.938 2.016 2.016s-0.938 2.016-2.016 2.016-2.016-0.938-2.016-2.016 0.938-2.016 2.016-2.016zM6 9.984c1.078 0 2.016 0.938 2.016 2.016s-0.938 2.016-2.016 2.016-2.016-0.938-2.016-2.016 0.938-2.016 2.016-2.016z"></path>
</symbol>
<symbol id="icon-more_vert" viewBox="0 0 24 24">
<title>more_vert</title>
<path d="M12 15.984c1.078 0 2.016 0.938 2.016 2.016s-0.938 2.016-2.016 2.016-2.016-0.938-2.016-2.016 0.938-2.016 2.016-2.016zM12 9.984c1.078 0 2.016 0.938 2.016 2.016s-0.938 2.016-2.016 2.016-2.016-0.938-2.016-2.016 0.938-2.016 2.016-2.016zM12 8.016c-1.078 0-2.016-0.938-2.016-2.016s0.938-2.016 2.016-2.016 2.016 0.938 2.016 2.016-0.938 2.016-2.016 2.016z"></path>
</symbol>
<symbol id="icon-lock_outline" viewBox="0 0 24 24">
<title>lock_outline</title>
<path d="M18 20.016v-10.031h-12v10.031h12zM8.906 6v2.016h6.188v-2.016c0-1.688-1.406-3.094-3.094-3.094s-3.094 1.406-3.094 3.094zM18 8.016c1.078 0 2.016 0.891 2.016 1.969v10.031c0 1.078-0.938 1.969-2.016 1.969h-12c-1.078 0-2.016-0.891-2.016-1.969v-10.031c0-1.078 0.938-1.969 2.016-1.969h0.984v-2.016c0-2.766 2.25-5.016 5.016-5.016s5.016 2.25 5.016 5.016v2.016h0.984zM12 17.016c-1.078 0-2.016-0.938-2.016-2.016s0.938-2.016 2.016-2.016 2.016 0.938 2.016 2.016-0.938 2.016-2.016 2.016z"></path>
</symbol>
<symbol id="icon-adjust" viewBox="0 0 24 24">
<title>adjust</title>
<path d="M15 12c0 1.641-1.359 3-3 3s-3-1.359-3-3 1.359-3 3-3 3 1.359 3 3zM12 20.016c4.406 0 8.016-3.609 8.016-8.016s-3.609-8.016-8.016-8.016-8.016 3.609-8.016 8.016 3.609 8.016 8.016 8.016zM12 2.016c5.531 0 9.984 4.453 9.984 9.984s-4.453 9.984-9.984 9.984-9.984-4.453-9.984-9.984 4.453-9.984 9.984-9.984z"></path>
</symbol>
<symbol id="icon-radio_button_unchecked" viewBox="0 0 24 24">
<title>radio_button_unchecked</title>
<path d="M12 20.016c4.406 0 8.016-3.609 8.016-8.016s-3.609-8.016-8.016-8.016-8.016 3.609-8.016 8.016 3.609 8.016 8.016 8.016zM12 2.016c5.531 0 9.984 4.453 9.984 9.984s-4.453 9.984-9.984 9.984-9.984-4.453-9.984-9.984 4.453-9.984 9.984-9.984z"></path>
</symbol>
<symbol id="icon-add_circle" viewBox="0 0 24 24">
<title>add_circle</title>
<path d="M17.016 12.984v-1.969h-4.031v-4.031h-1.969v4.031h-4.031v1.969h4.031v4.031h1.969v-4.031h4.031zM12 2.016c5.531 0 9.984 4.453 9.984 9.984s-4.453 9.984-9.984 9.984-9.984-4.453-9.984-9.984 4.453-9.984 9.984-9.984z"></path>
</symbol>
<symbol id="icon-help" viewBox="0 0 24 24">
<title>help</title>
<path d="M15.047 11.25c0.563-0.563 0.938-1.359 0.938-2.25 0-2.203-1.781-3.984-3.984-3.984s-3.984 1.781-3.984 3.984h1.969c0-1.078 0.938-2.016 2.016-2.016s2.016 0.938 2.016 2.016c0 0.563-0.234 1.031-0.609 1.406l-1.219 1.266c-0.703 0.75-1.172 1.734-1.172 2.813v0.516h1.969c0-1.5 0.469-2.063 1.172-2.813zM12.984 18.984v-1.969h-1.969v1.969h1.969zM12 2.016c5.531 0 9.984 4.453 9.984 9.984s-4.453 9.984-9.984 9.984-9.984-4.453-9.984-9.984 4.453-9.984 9.984-9.984z"></path>
</symbol>
<symbol id="icon-favorite2" viewBox="0 0 24 24">
<title>favorite2</title>
<path d="M12 21.328l-1.453-1.313c-5.156-4.688-8.531-7.734-8.531-11.531 0-3.094 2.391-5.484 5.484-5.484 1.734 0 3.422 0.844 4.5 2.109 1.078-1.266 2.766-2.109 4.5-2.109 3.094 0 5.484 2.391 5.484 5.484 0 3.797-3.375 6.891-8.531 11.578z"></path>
</symbol>
<symbol id="icon-favorite_border2" viewBox="0 0 24 24">
<title>favorite_border2</title>
<path d="M12.094 18.563c4.781-4.313 7.922-7.172 7.922-10.078 0-2.016-1.5-3.469-3.516-3.469-1.547 0-3.047 0.984-3.563 2.344h-1.875c-0.516-1.359-2.016-2.344-3.563-2.344-2.016 0-3.516 1.453-3.516 3.469 0 2.906 3.141 5.766 7.922 10.078l0.094 0.094zM16.5 3c3.094 0 5.484 2.391 5.484 5.484 0 3.797-3.375 6.844-8.531 11.531l-1.453 1.313-1.453-1.266c-5.156-4.688-8.531-7.781-8.531-11.578 0-3.094 2.391-5.484 5.484-5.484 1.734 0 3.422 0.844 4.5 2.109 1.078-1.266 2.766-2.109 4.5-2.109z"></path>
</symbol>
<symbol id="icon-refresh" viewBox="0 0 24 24">
<title>refresh</title>
<path d="M17.672 6.328l2.344-2.344v7.031h-7.031l3.234-3.234c-1.078-1.078-2.578-1.781-4.219-1.781-3.328 0-6 2.672-6 6s2.672 6 6 6c2.625 0 4.875-1.641 5.672-3.984h2.063c-0.891 3.469-3.984 6-7.734 6-4.406 0-7.969-3.609-7.969-8.016s3.563-8.016 7.969-8.016c2.203 0 4.219 0.891 5.672 2.344z"></path>
</symbol>
<symbol id="icon-check_circle2" viewBox="0 0 24 24">
<title>check_circle2</title>
<path d="M9.984 17.016l9-9-1.406-1.453-7.594 7.594-3.563-3.563-1.406 1.406zM12 2.016c5.531 0 9.984 4.453 9.984 9.984s-4.453 9.984-9.984 9.984-9.984-4.453-9.984-9.984 4.453-9.984 9.984-9.984z"></path>
</symbol>
<symbol id="icon-cancel" viewBox="0 0 24 24">
<title>cancel</title>
<path d="M17.016 15.609l-3.609-3.609 3.609-3.609-1.406-1.406-3.609 3.609-3.609-3.609-1.406 1.406 3.609 3.609-3.609 3.609 1.406 1.406 3.609-3.609 3.609 3.609zM12 2.016c5.531 0 9.984 4.453 9.984 9.984s-4.453 9.984-9.984 9.984-9.984-4.453-9.984-9.984 4.453-9.984 9.984-9.984z"></path>
</symbol>
<symbol id="icon-check" viewBox="0 0 24 24">
<title>check</title>
<path d="M9 16.172l10.594-10.594 1.406 1.406-12 12-5.578-5.578 1.406-1.406z"></path>
</symbol>
<symbol id="icon-close" viewBox="0 0 24 24">
<title>close</title>
<path d="M18.984 6.422l-5.578 5.578 5.578 5.578-1.406 1.406-5.578-5.578-5.578 5.578-1.406-1.406 5.578-5.578-5.578-5.578 1.406-1.406 5.578 5.578 5.578-5.578z"></path>
</symbol>
<symbol id="icon-person" viewBox="0 0 24 24">
<title>person</title>
<path d="M12 14.016c2.672 0 8.016 1.313 8.016 3.984v2.016h-16.031v-2.016c0-2.672 5.344-3.984 8.016-3.984zM12 12c-2.203 0-3.984-1.781-3.984-3.984s1.781-4.031 3.984-4.031 3.984 1.828 3.984 4.031-1.781 3.984-3.984 3.984z"></path>
</symbol>
<symbol id="icon-add" viewBox="0 0 24 24">
<title>add</title>
<path d="M18.984 12.984h-6v6h-1.969v-6h-6v-1.969h6v-6h1.969v6h6v1.969z"></path>
</symbol>
<symbol id="icon-control_point" viewBox="0 0 24 24">
<title>control_point</title>
<path d="M12 20.016c4.406 0 8.016-3.609 8.016-8.016s-3.609-8.016-8.016-8.016-8.016 3.609-8.016 8.016 3.609 8.016 8.016 8.016zM12 2.016c5.531 0 9.984 4.453 9.984 9.984s-4.453 9.984-9.984 9.984-9.984-4.453-9.984-9.984 4.453-9.984 9.984-9.984zM12.984 6.984v4.031h4.031v1.969h-4.031v4.031h-1.969v-4.031h-4.031v-1.969h4.031v-4.031h1.969z"></path>
</symbol>
<symbol id="icon-navigate_before" viewBox="0 0 24 24">
<title>navigate_before</title>
<path d="M15.422 7.406l-4.594 4.594 4.594 4.594-1.406 1.406-6-6 6-6z"></path>
</symbol>
<symbol id="icon-navigate_next2" viewBox="0 0 24 24">
<title>navigate_next2</title>
<path d="M9.984 6l6 6-6 6-1.406-1.406 4.594-4.594-4.594-4.594z"></path>
</symbol>
<symbol id="icon-expand_less" viewBox="0 0 24 24">
<title>expand_less</title>
<path d="M12 8.016l6 6-1.406 1.406-4.594-4.594-4.594 4.594-1.406-1.406z"></path>
</symbol>
<symbol id="icon-expand_more" viewBox="0 0 24 24">
<title>expand_more</title>
<path d="M16.594 8.578l1.406 1.406-6 6-6-6 1.406-1.406 4.594 4.594z"></path>
</symbol>
<symbol id="icon-delete" viewBox="0 0 24 24">
<title>delete</title>
<path d="M18.984 3.984v2.016h-13.969v-2.016h3.469l1.031-0.984h4.969l1.031 0.984h3.469zM6 18.984v-12h12v12c0 1.078-0.938 2.016-2.016 2.016h-7.969c-1.078 0-2.016-0.938-2.016-2.016z"></path>
</symbol>
<symbol id="icon-list" viewBox="0 0 32 32">
<title>list</title>
<path d="M26.524 16.961h-14.482c-0.531 0-0.96-0.43-0.96-0.96s0.43-0.96 0.96-0.96h14.482c0.531 0 0.961 0.43 0.961 0.96s-0.43 0.96-0.961 0.96v0 0zM26.524 9.277h-14.482c-0.531 0-0.96-0.43-0.96-0.96s0.43-0.96 0.96-0.96h14.482c0.531 0 0.961 0.43 0.961 0.96s-0.43 0.96-0.961 0.96v0 0zM6.437 25.604c-1.061 0-1.921-0.86-1.921-1.921s0.86-1.921 1.921-1.921c1.061 0 1.921 0.86 1.921 1.921s-0.86 1.921-1.921 1.921v0 0zM6.437 17.921c-1.061 0-1.921-0.86-1.921-1.921s0.86-1.921 1.921-1.921c1.061 0 1.921 0.86 1.921 1.921s-0.86 1.921-1.921 1.921v0 0zM6.437 10.238c-1.061 0-1.921-0.86-1.921-1.921s0.86-1.921 1.921-1.921c1.061 0 1.921 0.86 1.921 1.921s-0.86 1.921-1.921 1.921v0 0zM12.042 22.723h14.482c0.531 0 0.961 0.43 0.961 0.96s-0.43 0.96-0.961 0.96h-14.482c-0.531 0-0.96-0.43-0.96-0.96s0.43-0.96 0.96-0.96v0 0z"></path>
</symbol>
<symbol id="icon-list_2" viewBox="0 0 32 32">
<title>list_2</title>
<path d="M3.031 6h25.938v2.781h-25.938zM3.031 14.063h25.938v2.781h-25.938zM3.031 23.156h25.938v2.781h-25.938z"></path>
</symbol>
<symbol id="icon-typeface" viewBox="0 0 32 32">
<title>typeface</title>
<path d="M5.6 5.6v5.92h1.44c0-0.64 0.16-1.12 0.16-1.6 0.16-0.64 0.8-1.12 1.44-1.12h3.84c0.64 0 1.12 0.48 1.12 1.12v12.64c0 0.96-0.16 1.6-0.48 1.92s-1.28 0.48-2.56 0.48v1.44h10.56v-1.44c-0.8 0-1.6-0.16-2.080-0.32s-0.8-0.48-0.8-0.8c-0.16-0.32-0.16-0.8-0.16-1.44v-12.48c0-0.64 0.48-1.12 1.12-1.12h3.84c0.64 0 1.28 0.32 1.44 0.96 0.16 0.48 0.32 0.96 0.32 1.6h1.44v-5.76h-20.64z"></path>
</symbol>
<symbol id="icon-warning" viewBox="0 0 32 32">
<title>warning</title>
<path d="M18.889 9.594l-1.096 8.906h-0.004c-0.151 0.851-0.891 1.5-1.786 1.5s-1.634-0.649-1.785-1.5h-0.004l-1.103-8.906h0.021c-0.015-0.121-0.037-0.239-0.037-0.364 0-1.607 1.302-2.908 2.908-2.908s2.908 1.301 2.908 2.908c0 0.124-0.021 0.243-0.036 0.364h0.014zM16.004 26.044c-1.204 0-2.181-0.976-2.181-2.181s0.977-2.181 2.181-2.181c1.205 0 2.181 0.976 2.181 2.181s-0.976 2.181-2.181 2.181v0zM16 0c-8.822 0-16 7.178-16 16.001s7.178 16 16 16c8.823 0 16.001-7.178 16.001-16s-7.178-16.001-16.001-16.001v0z"></path>
</symbol>
<symbol id="icon-star" viewBox="0 0 32 32">
<title>star</title>
<path d="M16 2.080l3.821 10.755h10.259l-8.371 6.317 2.994 11.085-8.702-6.646-8.701 6.646 2.992-11.085-8.373-6.317h10.259l3.822-10.755z"></path>
</symbol>
<symbol id="icon-mobile" viewBox="0 0 32 32">
<title>mobile</title>
<path d="M22.406 0h-12.813c-1.763 0-3.194 1.43-3.194 3.194v25.611c0 1.765 1.43 3.195 3.194 3.195h12.811c1.765 0 3.195-1.43 3.195-3.194v-25.613c0-1.763-1.43-3.194-3.194-3.194zM16 30.4c-1.104 0-2-0.715-2-1.6s0.896-1.6 2-1.6 2 0.715 2 1.6-0.896 1.6-2 1.6zM22.4 25.6h-12.8v-22.4h12.8v22.4z"></path>
</symbol>
<symbol id="icon-cog2" viewBox="0 0 24 28">
<title>cog2</title>
<path d="M16 14c0-2.203-1.797-4-4-4s-4 1.797-4 4 1.797 4 4 4 4-1.797 4-4zM24 12.297v3.469c0 0.234-0.187 0.516-0.438 0.562l-2.891 0.438c-0.172 0.5-0.359 0.969-0.609 1.422 0.531 0.766 1.094 1.453 1.672 2.156 0.094 0.109 0.156 0.25 0.156 0.391s-0.047 0.25-0.141 0.359c-0.375 0.5-2.484 2.797-3.016 2.797-0.141 0-0.281-0.063-0.406-0.141l-2.156-1.687c-0.453 0.234-0.938 0.438-1.422 0.594-0.109 0.953-0.203 1.969-0.453 2.906-0.063 0.25-0.281 0.438-0.562 0.438h-3.469c-0.281 0-0.531-0.203-0.562-0.469l-0.438-2.875c-0.484-0.156-0.953-0.344-1.406-0.578l-2.203 1.672c-0.109 0.094-0.25 0.141-0.391 0.141s-0.281-0.063-0.391-0.172c-0.828-0.75-1.922-1.719-2.578-2.625-0.078-0.109-0.109-0.234-0.109-0.359 0-0.141 0.047-0.25 0.125-0.359 0.531-0.719 1.109-1.406 1.641-2.141-0.266-0.5-0.484-1.016-0.641-1.547l-2.859-0.422c-0.266-0.047-0.453-0.297-0.453-0.562v-3.469c0-0.234 0.187-0.516 0.422-0.562l2.906-0.438c0.156-0.5 0.359-0.969 0.609-1.437-0.531-0.75-1.094-1.453-1.672-2.156-0.094-0.109-0.156-0.234-0.156-0.375s0.063-0.25 0.141-0.359c0.375-0.516 2.484-2.797 3.016-2.797 0.141 0 0.281 0.063 0.406 0.156l2.156 1.672c0.453-0.234 0.938-0.438 1.422-0.594 0.109-0.953 0.203-1.969 0.453-2.906 0.063-0.25 0.281-0.438 0.562-0.438h3.469c0.281 0 0.531 0.203 0.562 0.469l0.438 2.875c0.484 0.156 0.953 0.344 1.406 0.578l2.219-1.672c0.094-0.094 0.234-0.141 0.375-0.141s0.281 0.063 0.391 0.156c0.828 0.766 1.922 1.734 2.578 2.656 0.078 0.094 0.109 0.219 0.109 0.344 0 0.141-0.047 0.25-0.125 0.359-0.531 0.719-1.109 1.406-1.641 2.141 0.266 0.5 0.484 1.016 0.641 1.531l2.859 0.438c0.266 0.047 0.453 0.297 0.453 0.562z"></path>
</symbol>
</defs>
</svg>
